<svg width="1000" height="1000" viewBox="0 0 1000 1000" fill="none" xmlns="http://www.w3.org/2000/svg">
<mask id="mask0_0_268" style="mask-type:luminance" maskUnits="userSpaceOnUse" x="0" y="0" width="1000" height="1000">
<circle cx="500" cy="500" r="500" fill="white"/>
</mask>
<g mask="url(#mask0_0_268)">
<path d="M744.906 977.215C645.844 1274.12 381.203 1365.81 241.271 997.033C222.028 946.317 272.342 927.441 307.529 905.125C331.631 889.839 344.292 876.583 342.824 862.916C335.896 798.441 305.903 619.062 305.903 619.062L302.852 613.283C302.852 613.283 303.583 611.663 300.712 614.528C297.72 617.515 290.819 648.705 263.622 648.705C239.238 648.705 214.483 637.805 202.636 562.376C198.349 535.079 200.782 463.516 230.989 450.593C243.472 445.253 254.988 443.344 266.222 449.753C277.456 456.161 253.26 427.847 378.209 323.722C459.427 256.039 587.717 246.119 639.484 257.547C691.25 268.974 743.016 294.314 765.912 347.974C793.694 413.083 740.029 462.249 751.816 610.533C749.668 664.107 752.743 781.688 605.314 821.098C577.313 828.583 586 869.49 628 879.49C695 900.49 744.959 951.758 744.959 977.349" fill="white"/>
<path fill-rule="evenodd" clip-rule="evenodd" d="M744.943 515.69L745.102 514.296C749.243 477.889 753.256 442.608 772.243 410.919C778.702 415.34 777.948 420.942 775.929 426.133C756.013 477.335 757.842 530.53 759.669 583.696C759.83 588.353 759.99 593.009 760.135 597.664C762.216 664.091 745.648 724.478 701.354 775.226C685.981 792.838 665.632 804.954 644.854 815.535C623.515 826.402 619.03 835.622 625.687 859.089C625.93 859.945 626.229 860.805 626.529 861.668C627.892 865.59 629.273 869.563 625.487 873.44C620.965 878.07 616.026 876.749 610.683 875.319C610.48 875.265 610.277 875.211 610.074 875.157C559.733 861.731 514.697 837.644 473.056 806.883C467.139 802.512 462.272 796.55 457.561 790.78L457.561 790.779L457.256 790.406C454.776 787.369 454.338 782.631 457.807 779.952C461.054 777.445 463.609 779.501 466.452 781.788C466.815 782.08 467.182 782.376 467.556 782.666C490.027 800.104 514.773 811.553 543.768 814.433C557.176 815.765 570.448 815.274 583.708 814.783H583.708H583.709C591.17 814.507 598.626 814.231 606.101 814.28C616.34 814.347 624.752 809.597 632.761 805.074C633.712 804.537 634.658 804.003 635.601 803.48C663.446 788.035 689.883 770.719 707.836 742.821C723.922 717.821 733.665 690.59 739.402 661.933C746.645 625.76 745.989 589.19 745.324 552.111C745.107 540.026 744.889 527.887 744.943 515.69ZM241.684 440.314C263.577 438.554 275.771 451.523 286.037 466.543C298.664 485.016 305.39 505.955 308.37 528.062C308.87 531.77 309.389 535.713 307.152 539.346C302.737 539.94 302.319 536.436 302.252 533.807C301.696 513.134 292.526 495.1 283.308 477.646C276.73 465.194 267.059 453.13 251.943 450.067C234.71 446.574 218.858 462.056 211.067 482.332C196.636 519.888 199.029 556.85 212.455 593.249C218.33 609.177 225.648 625.403 240.303 636.516C255.142 647.77 273.008 645.785 283.903 630.839C284.526 629.984 285.184 629.139 285.845 628.291L285.845 628.291L285.845 628.291C287.841 625.728 289.853 623.146 290.928 620.239C293.035 614.539 296.256 609.119 302.155 609.913C308.978 610.832 310.271 618.219 310.909 623.989C316.707 676.418 324.758 728.514 332.81 780.616L332.81 780.616C334.808 793.543 336.806 806.47 338.769 819.403C341.369 836.513 344.381 861.088 342.361 871.54C342.219 872.282 342.136 873.013 342.058 873.712C341.749 876.448 341.496 878.7 337.906 879.24C333.034 879.974 330.831 877.15 330.233 872.77C327.913 855.764 327.273 849.237 326.275 823.225C325.308 798.009 320.569 773.155 315.83 748.306L315.83 748.305C314.111 739.289 312.392 730.274 310.853 721.243C305.613 690.486 300.483 659.292 300.022 624.267C299.326 625.298 298.644 626.315 297.974 627.316C290.426 638.585 284.264 647.785 273.48 651.367C255.58 657.317 239.917 652.912 227.371 638.767C213.071 622.645 203.783 604.298 198.558 582.988C190.244 549.077 188.704 515.858 199.487 482.343C204.655 466.264 223.189 437.698 241.684 440.314ZM276.346 567.816C280.717 570.957 284.679 573.806 288.334 562.438C287.158 520.142 273.6 493.144 252.472 492.122C263.747 506.687 274.559 520.903 275.472 540.622C270.742 538.468 267.7 535.079 264.784 531.832C262.753 529.57 260.784 527.376 258.348 525.716C257.31 525.008 256.295 524.225 255.271 523.436C250.544 519.791 245.636 516.006 237.471 518.847C241.301 524.676 246.575 528.791 251.799 532.867C257.832 537.573 263.798 542.227 267.392 549.409C256.777 557.051 252.209 567.11 257.718 579.251C262.497 589.786 269.565 598.49 283.565 599.125C283.043 592.8 278.868 588.197 274.812 583.725C269.879 578.286 265.121 573.04 267.316 565.125C270.515 563.623 273.516 565.781 276.346 567.816Z" fill="black"/>
<path d="M1139.34 1513.83H20.0104L-155.934 1511.44C-155.934 1511.44 -130.169 1274.69 -119.26 1243.11C-93.1188 1167.45 -66.7114 1075.64 1.16158 1030.74C30.7616 1011.16 54.4564 993.797 56.3794 983.225C57.3524 977.878 154.2 883.517 171.722 873.954C255.242 828.372 336.471 855.581 336.471 855.581L337.371 874.348C337.371 874.348 339.292 897.048 344.259 903.806C367.001 934.764 445.626 954.209 498.444 958.455C564.661 963.778 636.944 933.796 639.105 911.78C640.796 894.54 617.724 863.256 650.926 850.16C676.476 840.083 752.451 846.486 779.003 856.782C813.149 870.025 878.062 910.272 909.284 950.184C921.499 965.797 923.993 1009.71 965.598 1022.55C1027.6 1041.7 1075.19 1131.25 1100.9 1243.11C1114.04 1300.27 1139.34 1513.83 1139.34 1513.83Z" fill="white"/>
<path d="M1133.02 1513.49C1126.78 1492.22 1121.53 1440.18 1118.12 1411.5C1115.66 1390.84 1098.47 1245.02 1079.56 1194.11C1067.99 1162.95 1057.23 1131.05 1040.13 1101.95C1028.42 1082.02 1010.81 1067.68 994.065 1053.09C973.403 1035.09 950.587 1019.43 927.125 1004.88C896.208 985.705 863.662 981.798 829.487 993.16C818.336 996.879 810.849 1004.71 807.621 1017.51C794.175 1070.83 798.458 1125.08 797.812 1179.06C796.977 1248.86 800.912 1318.55 803.038 1388.29C804.782 1445.53 802.904 1455.03 802.395 1513.49C797.403 1513.49 793.394 1513.49 787.908 1513.49C787 1481.32 787.511 1498.15 787.327 1465.98C787.051 1418.42 786.506 1370.86 785.694 1323.3C785.102 1285.47 785.394 1247.55 782.919 1209.82C780.319 1170.18 780.19 1130.67 783.619 1091.22C786.074 1063.01 783.734 1034.22 794.93 1006.9C804.33 983.954 823.212 975.076 844.8 973.437C867.181 971.737 890.482 968.56 914.575 982.688C909.799 966.07 899.611 957.966 891.947 948.625C863.931 914.476 826.506 893.174 788.447 871.939C749.078 849.975 707.672 852.898 665.783 854.521C659.278 854.773 653.702 858.245 648.001 861.221C640.485 865.14 632.666 868.451 621.353 866.021C630.878 853.052 643.538 848.665 656.538 844.881C693.606 834.091 729.522 839.736 752.187 843.1C781.051 847.384 880.661 895.41 927.683 970.988C950.017 1006.89 1013.48 1007.39 1071.33 1128.54C1086.68 1160.69 1097.45 1194.91 1105.99 1229.32C1116.9 1273.32 1145.49 1481.88 1145.49 1513.49C1141.18 1513.49 1137.64 1513.49 1133.02 1513.49Z" fill="black"/>
<path d="M-146.739 1513.49C-144.716 1506.6 -144.047 1503.59 -143.098 1497.78C-138.454 1469.35 -137.632 1440.18 -134.223 1411.5C-131.769 1390.84 -130.909 1370.08 -128.116 1349.41C-121.008 1296.81 -112.607 1244.53 -95.6661 1194.11C-85.0141 1162.41 -73.3301 1131.05 -56.2351 1101.95C-44.5291 1082.02 -26.9101 1067.68 -10.1691 1053.1C10.4929 1035.1 33.3089 1019.43 56.7709 1004.88C87.6875 985.706 120.234 981.799 154.409 993.16C165.56 996.879 173.047 1004.71 176.275 1017.51C189.72 1070.83 185.438 1125.08 186.084 1179.06C186.919 1248.86 182.984 1318.55 180.858 1388.29C179.114 1445.53 181.428 1513.32 181.428 1513.32C181.428 1513.32 190.483 1513.48 195.969 1513.48C196.877 1481.32 196.385 1498.15 196.569 1465.98C196.845 1418.42 197.389 1370.86 198.202 1323.31C198.794 1285.47 198.502 1247.55 200.976 1209.82C203.576 1170.18 203.706 1130.67 200.276 1091.22C197.821 1063.01 200.161 1034.22 188.965 1006.9C179.565 983.954 160.683 975.076 139.095 973.437C116.714 971.737 93.4129 968.56 69.3199 982.688C74.0959 966.07 84.2839 957.966 91.9479 948.625C119.963 914.476 157.389 893.174 195.448 871.939C234.817 849.975 276.223 852.898 318.112 854.521C324.617 854.773 330.193 858.245 335.893 861.221C343.41 865.14 338.236 872.662 342.345 861.846C348.058 846.804 340.357 848.669 327.357 844.885C290.289 834.095 253.215 840.916 216.246 845.438C208.877 846.338 201.498 849.809 194.834 853.409C143.408 881.191 78.7289 930.621 56.2119 970.992C44.1906 992.545 25.4599 1003.76 8.71188 1018.65C-51.0471 1071.79 -66.7301 1083.31 -87.4451 1128.55C-102.275 1160.93 -113.564 1194.91 -122.098 1229.33C-133.007 1273.32 -141.239 1317.92 -144.933 1363.45C-147.567 1395.92 -152.258 1428.33 -155.216 1460.89C-157.288 1483.7 -158.742 1500.64 -158.742 1513.49C-154.986 1513.49 -151.361 1513.49 -146.739 1513.49Z" fill="black"/>
<path d="M681.734 1513.83L304.248 1513.49C304.248 1513.49 290.734 1079.19 290.734 989.846C290.734 915.908 327.273 835.095 342.702 859.199C371.168 903.674 419.213 914.262 491.706 917.485C606.73 922.598 613.283 879.55 628.958 870.656C660.443 852.794 681.734 927.092 681.734 1003.76C681.734 1108.99 681.734 1513.83 681.734 1513.83Z" fill="black"/>
<path d="M305.36 1513.83C305.36 1513.83 290.734 1086.25 290.734 998.347C290.734 925.602 327.273 835.484 342.702 859.199C371.168 902.956 419.901 917.555 492.395 920.726C607.418 925.756 613.283 879.406 628.958 870.656C660.443 853.082 681.734 936.606 681.734 1012.04C681.734 1079.95 681.734 1513.49 681.734 1513.49" stroke="black" stroke-width="15"/>
<path d="M181.04 269.194C192.084 241.273 206.928 216.774 224.905 194.053C227.551 190.795 230.59 187.878 233.951 185.367C237.075 182.937 241.293 180.01 238.224 174.797C232.724 165.452 236.339 157.681 242.824 150.327C239.337 144.248 235.644 138.638 232.775 132.634C226.916 120.374 232.916 108.299 246.183 105.32C263.727 101.381 280.706 101.669 296.292 112.342C299.006 114.2 302.333 115.163 306.163 116.896C309.54 107.096 312.279 97.8286 315.902 88.9226C322.133 73.6036 335.86 70.8026 346.761 82.7706C349.347 85.6096 351.521 86.9096 355.127 87.2856C370.657 88.9026 370.647 88.9996 374.975 103.901C391.149 99.6716 407.253 94.8086 423.648 91.3006C460.636 83.4006 497.801 78.0746 535.891 83.1156C567.991 87.3646 599.427 93.8546 629.617 105.703C685.289 127.551 735.01 158.309 774.485 203.959C806.843 241.379 839.138 278.865 870.723 316.934C879.406 327.399 886.081 339.903 878.51 354.559C873.498 364.259 864.41 369.059 855.123 372.906C813.247 390.265 772.3 383.406 730.969 369.146C704.004 359.841 680.024 344.392 653.328 334.865C649.437 333.476 645.775 330.877 641.137 331.898C637.079 339.768 640.237 348.758 634.589 357.166C622.382 375.338 603.971 374.51 586.83 374.844C559.181 375.461 531.568 372.486 504.684 365.994C474.235 358.594 443.829 351.307 414.584 340.984C410.546 345.496 414.234 347.968 415.59 350.72C423.19 366.15 414.758 380.446 397.818 380.946C389.604 381.188 381.724 380.679 374.464 376.092C370.517 373.598 366.044 372.067 360.928 373.427C357.921 380.709 361.975 387.57 362.268 394.627C363.343 420.45 357.035 445.04 350.58 469.77C344.224 494.118 330.404 514.545 318.59 536.07C315.715 541.308 312.103 547.191 305.23 546.224C297.591 545.15 300.03 537.563 298.714 532.613C294.364 516.267 296.468 498.543 289.079 482.938C281.779 467.528 273.279 452.713 257.585 443.918C245.034 436.884 228.055 440.532 221.385 453.125C218.629 458.333 213.142 458.61 210.13 463.825C204.509 473.556 196.444 481.616 197.949 494.243C198.24 496.679 195.163 498.282 191.403 497.853C172.903 459.106 164.265 418.259 168.432 374.853C170.139 357.075 169.324 339.184 170.687 321.303C172.038 303.603 176.938 287.091 181.04 269.194Z" fill="black"/>
<path d="M633.29 729.184C604.059 743.171 568.151 732.278 549.09 713.232C546.761 710.905 545.273 707.607 543.848 704.548C542.788 702.271 542.248 699.606 544.485 697.461C546.659 695.381 549.245 695.712 551.603 696.821C554.245 698.064 557.203 699.264 559.115 701.321C571.238 714.351 587.199 717.688 603.791 720.207C613.044 721.612 619.954 715.879 628.015 713.797C633.276 712.439 639.015 704.882 642.966 713.046C646.26 719.872 641.686 725.979 633.29 729.184Z" fill="black"/>
<path d="M517.643 690.891C521.965 678.677 531.31 674.119 541.802 671.391C546.746 670.106 552.562 669.647 554.724 675.725C557.187 682.648 551.589 686.581 546.518 687.625C539.201 689.125 534.573 692.325 531.144 698.86C528.893 703.149 525.419 708.576 519.398 705.988C512.237 702.908 515.612 696.961 517.643 690.891Z" fill="black"/>
<path d="M629.663 537.005C636.249 560.094 644.713 580.992 659.905 599.097C666.139 606.527 663.484 617.238 656.81 623.736C643.087 637.099 627.564 647.771 606.81 639.27C601.804 637.22 597.718 639.77 593.196 640.17C583.663 641.027 576.565 638.64 576.63 625.887C589.821 628.246 601.646 618.582 615.456 627.107C621.708 630.967 633.386 626.507 640.372 621.073C646.084 616.629 650.195 610.426 642.944 601.801C623.867 579.108 615.994 551.536 612.879 522.674C611.847 513.116 613.808 503.174 617.506 494.049C619.301 489.62 622.661 485.541 628.335 487.607C633.835 489.607 632.79 494.929 631.278 498.57C626.128 510.976 627.284 523.448 629.663 537.005Z" fill="black"/>
<path d="M485.129 519.125C490.116 507.087 494.019 489.725 509.214 496.61C529.893 505.983 523.072 527.336 518.89 543.971C517.312 550.248 504.37 559.883 500.636 558.327C484.348 551.536 481.371 536.585 485.129 519.125Z" fill="black"/>
<path d="M711.958 555.916C703.383 563.372 694.989 563.516 689.817 554.416C680.705 538.377 681.204 521.591 693.141 507.176C695.635 504.165 706.894 503.546 709.416 506.234C723.359 521.095 723.96 537.95 711.958 555.916Z" fill="black"/>
<path fill-rule="evenodd" clip-rule="evenodd" d="M720.204 477.291C724.926 478.271 729.43 478.273 733.822 478.274C738.573 478.276 743.194 478.277 747.816 479.518C760.802 483.005 765.616 491.833 768.598 503.663C773.688 523.856 774.787 543.713 768.734 563.982C765.304 575.47 761.652 582.368 746.771 582.3C719.223 582.174 691.596 582.788 664.027 583.554C629.32 584.518 621.16 570.205 616.292 537.444C613.979 521.882 609.192 515.744 594.96 516.224C583.454 516.612 576.428 524.519 576.612 539.004C576.804 554.104 570.231 566.404 561.423 577.333C552.361 588.58 539.821 587.245 527.717 585.957L527.717 585.957C525.381 585.708 523.061 585.461 520.785 585.307C507.909 584.435 495.064 583.108 482.219 581.781C472.26 580.753 462.3 579.724 452.324 578.907C439.771 577.876 430.483 570.947 429.304 558.256C428.88 553.673 427.718 549.316 426.561 544.983C425.536 541.14 424.516 537.317 424.02 533.373C423.337 527.942 420.701 524.928 415.92 523.073C377.614 508.238 339.312 493.394 301.012 478.539C294.906 476.179 290.474 471.813 284.764 466.187C284.344 465.774 283.918 465.354 283.483 464.927C297.183 462.179 308.136 466.7 318.235 471.602C349.535 486.794 382.181 498.234 415.241 508.735C422.121 510.92 424.608 506.604 426.918 501.949C427.823 500.126 428.514 498.187 429.203 496.252L429.203 496.251L429.203 496.251C430.083 493.781 430.96 491.317 432.278 489.106C442.644 471.716 456.266 467.042 479.471 470.245C484.275 470.908 489.073 471.638 493.871 472.367C509.631 474.764 525.403 477.162 541.471 477.217C565.806 477.303 571.66 481.938 578.959 505.635C579.867 505.478 580.776 505.315 581.688 505.152L581.691 505.152C592.102 503.291 602.799 501.38 613.392 506.449C618.147 508.722 619.571 504.003 620.669 500.067C625.817 481.605 631.632 477.09 650.008 477.106C673.029 477.126 696.049 477.197 720.204 477.291ZM459.846 479.776C454.132 479.72 448.995 480.476 445.769 486.276C432.869 509.468 430.129 533.554 438.828 558.776C440.29 563.016 442.286 566.261 447.568 566.683C478.046 569.115 508.513 571.682 538.968 574.383C545.524 574.958 549.758 572.31 554.287 567.492C565.317 555.759 565.861 541.265 566.39 527.175L566.39 527.172C566.474 524.943 566.557 522.724 566.681 520.527C568.174 494.178 565.898 492.375 537.595 487.871C519.721 485.025 501.64 483.466 482.905 481.85C475.336 481.198 467.66 480.536 459.848 479.776H459.846ZM631.487 557.863C627.627 548.513 623.701 539.002 625.483 528.361H625.485C626.714 524.064 627.532 519.875 628.324 515.822C629.781 508.363 631.148 501.363 634.822 494.991C638.138 489.239 642.34 486.641 649.148 486.461C680.641 485.629 711.945 488.078 743.265 490.785C749.753 491.346 754.021 494.337 755.54 500.055C761.024 520.705 765.222 541.388 757.631 562.679C755.454 568.784 753.033 571.929 746.202 571.862C743.27 571.833 740.337 571.803 737.405 571.772C707.241 571.457 677.078 571.142 646.919 572.998C639.173 573.474 635.01 566.48 632.473 560.261C632.148 559.462 631.818 558.663 631.487 557.863Z" fill="black"/>
<path d="M449.052 458.518C457.696 444.118 470.968 439.876 485.816 438.39C509.048 436.064 529.716 446.915 551.67 451.152C559.628 452.688 558.457 458.703 553.121 461.921C543.712 467.595 533.611 472.973 521.914 468.968C499.414 461.263 476.764 456.915 453.341 464.768C447.111 466.862 448.282 462.835 449.052 458.518Z" fill="black"/>
<path d="M689.065 448.471C703.996 445.858 717.721 443.226 731.181 450.013C742.043 455.489 746.155 463.957 744.081 475.49C739.114 478.609 736.56 475.09 733.535 473.029C721.91 465.118 709.647 463.052 696.235 468.364C686.926 472.051 677 470.782 667.278 470.788C662.507 470.788 658.82 469.013 658.462 463.726C658.096 458.326 659.362 453.026 665.353 451.704C672.743 450.08 680.382 449.558 689.065 448.471Z" fill="black"/>
</g>
</svg>
